<?xml version="1.0" encoding="UTF-8" standalone="no"?>
<svg
   viewBox="0 0 640 640"
   version="1.1"
   id="svg1"
   sodipodi:docname="hot.svg"
   inkscape:version="1.4.3 (0d15f75042, 2025-12-25)"
   xmlns:inkscape="http://www.inkscape.org/namespaces/inkscape"
   xmlns:sodipodi="http://sodipodi.sourceforge.net/DTD/sodipodi-0.dtd"
   xmlns="http://www.w3.org/2000/svg"
   xmlns:svg="http://www.w3.org/2000/svg">
  <defs
     id="defs1" />
  <sodipodi:namedview
     id="namedview1"
     pagecolor="#ffffff"
     bordercolor="#000000"
     borderopacity="0.25"
     inkscape:showpageshadow="2"
     inkscape:pageopacity="0.0"
     inkscape:pagecheckerboard="0"
     inkscape:deskcolor="#d1d1d1"
     inkscape:zoom="0.70710678"
     inkscape:cx="89.802561"
     inkscape:cy="335.16861"
     inkscape:window-width="1360"
     inkscape:window-height="744"
     inkscape:window-x="0"
     inkscape:window-y="0"
     inkscape:window-maximized="1"
     inkscape:current-layer="svg1"
     showguides="true"
     showgrid="true">
    <inkscape:grid
       id="grid2"
       units="px"
       originx="0"
       originy="0"
       spacingx="1"
       spacingy="1"
       empcolor="#0099e5"
       empopacity="0.30196078"
       color="#0099e5"
       opacity="0.14901961"
       empspacing="5"
       enabled="true"
       visible="true" />
  </sodipodi:namedview>
  <!--!Font Awesome Free 7.1.0 by @fontawesome - https://fontawesome.com License - https://fontawesome.com/license/free Copyright 2026 Fonticons, Inc.-->
  <path
     d="m 217.35484,62.709677 c -53,0 -96,43.000003 -96,96.000003 v 164.7 c -29.5,26.3 -48,64.7 -48,107.3 0,79.5 64.5,144 144,144 79.5,0 144,-64.5 144,-144 0,-42.6 -18.5,-81 -48,-107.3 v -164.7 c 0,-53 -43,-96.000003 -96,-96.000003 z m 64,368.000003 c 0,35.3 -28.7,64 -64,64 -35.3,0 -64,-28.7 -64,-64 0,-26.9 16.5,-49.9 40,-59.3 v -212.7 c 0,-13.3 10.7,-24 24,-24 13.3,0 24,10.7 24,24 v 212.7 c 23.5,9.5 40,32.5 40,59.3 z"
     style="fill:#d4aa00;fill-opacity:1"
     id="path1" />
  <path
     style="fill:#d4aa00;fill-opacity:1;stroke:#d4aa00;stroke-width:29.4805;stroke-linecap:round;stroke-linejoin:miter;stroke-dasharray:none;stroke-opacity:1;paint-order:normal"
     d="M 482.64516,497.92964 V 243.14362"
     id="path9" />
  <path
     style="fill:#d4aa00;stroke:#d4aa00;stroke-width:25;stroke-linecap:round;stroke-opacity:1"
     d="m 416.83883,239.68731 66.17157,-69 58.32843,69 z"
     id="path2"
     sodipodi:nodetypes="cccc" />
</svg>
