<svg version="1.1" xmlns="http://www.w3.org/2000/svg" xmlns:xlink="http://www.w3.org/1999/xlink" width="41.0625" height="41.0625" viewBox="0,0,41.0625,41.0625"><g transform="translate(-299.46875,-159.46875)"><g stroke="#ffffff" stroke-width="2" stroke-miterlimit="10"><path d="M313.93191,189.47397c0,0 -4.96764,-1.34407 -4.45092,-2.63779c0.16717,-0.41855 0.74978,-1.95274 1.98931,-2.34061c1.79913,-0.56298 4.43988,0.02537 4.68355,-0.58471c1.57171,-3.93512 6.3399,-15.87338 6.3399,-15.87338l6.23067,2.48856l-8.56183,21.43649z" fill-opacity="0.6549" fill="#000000" stroke-linecap="butt"/><path d="M313.7675,180.24295l-1.13293,-2.26586l3.02115,-1.20846l-2.1148,-2.19033l3.17221,-1.51057l-1.73716,-2.71903l3.24773,-1.96375" fill="none" stroke-linecap="round"/><path d="M330.95226,175.03437l0.94579,2.35014l-3.10906,0.95993l1.93055,2.35434l-3.28408,1.24882l1.51135,2.85074l-3.39604,1.69439" fill="none" stroke-linecap="round"/></g></g></svg>
