<?xml version="1.0" encoding="UTF-8" standalone="no"?>
<svg
   viewBox="0 0 640 640"
   version="1.1"
   id="svg1"
   sodipodi:docname="lungs_cross.svg"
   inkscape:version="1.4.3 (0d15f75042, 2025-12-25)"
   xmlns:inkscape="http://www.inkscape.org/namespaces/inkscape"
   xmlns:sodipodi="http://sodipodi.sourceforge.net/DTD/sodipodi-0.dtd"
   xmlns="http://www.w3.org/2000/svg"
   xmlns:svg="http://www.w3.org/2000/svg">
  <defs
     id="defs1" />
  <sodipodi:namedview
     id="namedview1"
     pagecolor="#ffffff"
     bordercolor="#000000"
     borderopacity="0.25"
     inkscape:showpageshadow="2"
     inkscape:pageopacity="0.0"
     inkscape:pagecheckerboard="0"
     inkscape:deskcolor="#d1d1d1"
     inkscape:zoom="0.775"
     inkscape:cx="204.51613"
     inkscape:cy="329.03226"
     inkscape:window-width="1360"
     inkscape:window-height="744"
     inkscape:window-x="0"
     inkscape:window-y="0"
     inkscape:window-maximized="1"
     inkscape:current-layer="svg1" />
  <!--!Font Awesome Free 7.1.0 by @fontawesome - https://fontawesome.com License - https://fontawesome.com/license/free Copyright 2025 Fonticons, Inc.-->
  <path
     d="M352 96C352 78.3 337.7 64 320 64C302.3 64 288 78.3 288 96L288 237.9L256 257.1L256 140.4C256 115.9 236.1 96 211.6 96C199.1 96 187.2 101.3 178.8 110.5L152.4 139.5C74.9 224.8 32 335.8 32 451L32 481.5C32 533.7 74.3 576 126.5 576C148.5 576 170.2 570.9 189.9 561L194.9 558.5C232.3 539.8 255.9 501.6 255.9 459.7L255.9 331.7L319.9 293.3L383.9 331.7L383.9 459.7C383.9 501.5 407.5 539.8 444.9 558.5L449.9 561C469.6 570.8 491.3 576 513.3 576C565.5 576 607.8 533.7 607.8 481.5L607.8 475.3C607.8 364.2 571.1 256.3 503.4 168.3L460.9 112.7C452.8 102.1 440.2 96 426.9 96C403.2 96 384 115.2 384 138.9L384 257.1L352 237.9L352 96z"
     style="fill:rgb(255,255,255)"
     id="path1" />
  <path
     style="fill:#ff0000;fill-opacity:0.10332103;stroke:#ff0000;stroke-width:40;stroke-linecap:round;stroke-opacity:1;stroke-dasharray:none"
     d="M 67.096774,67.096774 589.67742,578.06452"
     id="path2" />
</svg>
